<?xml version="1.0" standalone="no"?>
<!DOCTYPE svg PUBLIC "-//W3C//DTD SVG 20010904//EN"
 "http://www.w3.org/TR/2001/REC-SVG-20010904/DTD/svg10.dtd">
<svg version="1.0" xmlns="http://www.w3.org/2000/svg"
 width="512.000000pt" height="512.000000pt" viewBox="0 0 512.000000 512.000000"
 preserveAspectRatio="xMidYMid meet">
<metadata>
Created by potrace 1.11, written by Peter Selinger 2001-2013
</metadata>
<g transform="translate(0.000000,512.000000) scale(0.100000,-0.100000)"
fill="#000000" stroke="none">
<path d="M2069 4806 c-1 0 -2 -36 -3 -78 -2 -77 -1 -78 24 -79 31 -1 712 -1
865 0 l111 1 -1 78 -1 77 -497 1 c-273 1 -498 1 -498 0z"/>
<path d="M1722 4479 c-127 -16 -256 -118 -305 -241 l-25 -63 -1 -1811 c-1
-1752 0 -1813 18 -1866 43 -124 127 -209 252 -254 39 -13 146 -15 884 -16 462
0 859 3 881 6 110 17 242 124 285 233 l24 58 0 1835 0 1835 -32 66 c-35 71
-105 144 -169 177 -87 45 -90 45 -944 46 -448 0 -839 -2 -868 -5z m1693 -161
c65 -17 138 -86 157 -151 11 -36 13 -383 13 -1823 -1 -1720 -1 -1780 -20
-1819 -10 -22 -36 -57 -57 -77 -72 -69 -39 -67 -963 -65 l-830 2 -47 28 c-50
29 -89 72 -109 122 -17 41 -20 3556 -3 3622 15 59 60 113 121 144 l50 26 819
1 c619 2 831 -1 869 -10z"/>
<path d="M1850 4121 c-19 -10 -44 -30 -55 -45 -20 -27 -20 -42 -23 -727 -1
-384 0 -699 2 -699 3 0 74 40 158 88 84 49 173 100 198 114 116 65 1098 632
1120 647 14 9 42 25 63 36 l38 20 -3 245 c-3 240 -3 246 -27 279 -45 63 -23
61 -763 61 -636 0 -675 -1 -708 -19z"/>
<path d="M3325 3387 c-11 -8 -155 -92 -320 -187 -302 -174 -403 -233 -582
-337 -108 -62 -366 -211 -540 -311 l-113 -64 0 -525 0 -525 53 30 c28 16 151
87 272 157 121 70 245 141 275 158 30 16 62 36 71 43 8 8 19 14 22 14 4 0 28
13 54 29 27 15 172 100 323 187 448 258 495 285 503 293 4 4 6 242 5 529 -3
520 -3 522 -23 509z"/>
<path d="M3110 2053 c-129 -74 -251 -144 -270 -155 -19 -11 -48 -27 -65 -37
-32 -19 -469 -271 -523 -303 -46 -25 -332 -191 -414 -239 l-68 -40 0 -287 c0
-321 3 -335 69 -379 l34 -23 687 0 687 0 34 23 c73 48 69 8 67 835 l-3 741
-235 -136z"/>
</g>
</svg>
